<svg xmlns="http://www.w3.org/2000/svg" width="256" height="256" viewBox="0 0 100 100"><rect width="100" height="100" rx="20" fill="#004de0"></rect><path d="M32.94 59.64L32.94 24.78L41.56 24.78L41.56 59.67Q41.56 66.82 37.10 71.02Q32.64 75.22 25.32 75.22L25.32 75.22Q17.53 75.22 13.29 71.29Q9.05 67.36 9.05 60.36L9.05 60.36L17.67 60.36Q17.67 64.32 19.63 66.32Q21.60 68.32 25.32 68.32L25.32 68.32Q28.81 68.32 30.88 66.01Q32.94 63.71 32.94 59.64L32.94 59.64ZM90.95 24.78L90.95 74.54L82.33 74.54L82.33 52.43L60.08 52.43L60.08 74.54L51.44 74.54L51.44 24.78L60.08 24.78L60.08 45.49L82.33 45.49L82.33 24.78L90.95 24.78Z" fill="#fff"></path></svg>